<?xml version="1.0" standalone="no"?>
<!DOCTYPE svg PUBLIC "-//W3C//DTD SVG 20010904//EN"
 "http://www.w3.org/TR/2001/REC-SVG-20010904/DTD/svg10.dtd">
<svg version="1.0" xmlns="http://www.w3.org/2000/svg"
 width="1080.000000pt" height="1080.000000pt" viewBox="0 0 1080.000000 1080.000000"
 preserveAspectRatio="xMidYMid meet">

<g transform="translate(0.000000,1080.000000) scale(0.100000,-0.100000)"
fill="#000000" stroke="none">
<path d="M5215 10794 c-1281 -58 -2459 -699 -3203 -1743 -414 -581 -667 -1245
-747 -1961 -17 -159 -20 -594 -4 -775 33 -391 130 -800 284 -1205 81 -213 310
-679 437 -890 302 -501 556 -849 1011 -1385 1622 -1913 2394 -2819 2402 -2821
10 -3 2317 2755 2593 3100 501 626 822 1112 1077 1631 264 538 406 1009 461
1528 20 185 14 627 -10 837 -93 795 -399 1528 -898 2148 -118 147 -438 471
-582 590 -628 519 -1402 843 -2211 926 -147 15 -474 26 -610 20z m539 -900
c1104 -122 2064 -793 2565 -1792 88 -175 190 -450 240 -647 27 -108 66 -325
82 -460 21 -170 18 -630 -4 -780 -92 -621 -320 -1152 -694 -1620 -113 -142
-358 -387 -498 -499 -880 -703 -2048 -909 -3105 -547 -477 163 -897 426 -1255
785 -549 551 -876 1253 -944 2026 -16 180 -14 502 3 651 108 901 559 1691
1278 2240 456 348 1025 576 1603 643 170 20 554 20 729 0z"/>
<path d="M5245 8729 c-789 -74 -1473 -620 -1720 -1374 -80 -244 -90 -311 -90
-625 0 -261 2 -281 28 -403 51 -237 143 -468 265 -665 312 -502 836 -843 1425
-927 138 -20 430 -19 566 1 569 83 1074 402 1393 880 78 117 187 342 232 477
105 315 129 684 66 1010 -21 110 -59 249 -85 311 l-17 39 -167 -168 -168 -167
8 -37 c55 -226 51 -503 -11 -747 -206 -818 -1039 -1335 -1865 -1158 -622 134
-1091 609 -1225 1241 -27 126 -38 395 -21 514 77 538 411 995 895 1225 223
105 384 143 636 151 150 5 193 2 299 -16 294 -50 571 -182 798 -379 46 -40 86
-72 90 -72 5 0 73 65 153 145 l144 144 -24 27 c-40 42 -206 179 -283 232 -376
259 -860 384 -1322 341z"/>
<path d="M7352 8350 c-159 -42 -124 -11 -1007 -891 l-810 -808 -275 273 c-296
293 -334 323 -470 362 -95 27 -234 25 -330 -5 -93 -28 -110 -37 -189 -97 l-63
-47 629 -629 c672 -672 661 -663 734 -639 25 8 344 321 1192 1169 l1159 1159
-49 40 c-138 116 -342 160 -521 113z"/>
</g>
</svg>
