<?xml version="1.0" standalone="no"?>
<!DOCTYPE svg PUBLIC "-//W3C//DTD SVG 20010904//EN"
 "http://www.w3.org/TR/2001/REC-SVG-20010904/DTD/svg10.dtd">
<svg version="1.0" xmlns="http://www.w3.org/2000/svg"
 width="1151.000000pt" height="1151.000000pt" viewBox="0 0 1151.000000 1151.000000"
 preserveAspectRatio="xMidYMid meet">

<g transform="translate(0.000000,1151.000000) scale(0.100000,-0.100000)"
fill="#000000" stroke="none">
<path d="M5812 10595 c-88 -20 -147 -50 -184 -95 l-32 -37 -55 26 c-80 37
-247 42 -376 12 -131 -31 -245 -90 -320 -165 -34 -33 -67 -69 -72 -79 -9 -18
-11 -18 -49 2 -47 25 -110 27 -185 5 -161 -47 -339 -193 -368 -302 -7 -26 -8
-27 -78 -24 -56 3 -82 -1 -119 -17 -106 -47 -199 -142 -225 -231 -10 -33 -15
-37 -46 -38 -87 -3 -265 -147 -342 -275 -78 -132 -109 -268 -79 -353 l15 -42
-53 -11 c-109 -25 -237 -136 -295 -258 -45 -95 -51 -206 -14 -295 5 -12 -2
-21 -29 -33 -19 -9 -55 -38 -80 -65 -145 -155 -181 -434 -71 -544 l32 -33 -19
-24 c-11 -13 -35 -55 -53 -93 -74 -150 -86 -341 -29 -453 18 -34 43 -66 61
-78 18 -11 30 -24 28 -30 -2 -5 -15 -37 -29 -70 -49 -116 -27 -274 53 -386 54
-76 135 -129 196 -129 l23 0 -20 -52 c-57 -146 5 -339 137 -426 26 -17 51 -32
57 -34 5 -2 -3 -25 -18 -51 -55 -99 -17 -242 93 -354 l55 -57 -177 -1170 c-97
-644 -179 -1185 -182 -1203 -5 -28 -2 -32 20 -35 17 -2 62 -38 127 -102 55
-54 99 -100 98 -101 -2 -1 -39 -10 -83 -20 -539 -115 -1219 -332 -1530 -486
-257 -128 -503 -360 -698 -659 -282 -434 -469 -1044 -480 -1564 l-2 -120 40
-23 40 -23 5153 0 c2833 0 5152 4 5152 8 0 5 -16 64 -36 133 -140 475 -432
1034 -768 1469 -102 132 -311 343 -395 400 -221 148 -523 241 -1636 500 -99
23 -202 49 -229 58 -45 16 -50 21 -71 75 l-24 57 130 0 129 0 0 223 0 222
-200 200 c-142 142 -200 206 -200 222 l0 23 -341 0 -340 0 -36 24 c-20 14 -62
33 -95 42 l-59 18 3 79 3 79 120 51 120 52 383 3 382 2 0 223 0 223 -55 54
-55 54 32 17 c86 44 188 176 188 243 0 12 4 26 8 31 4 6 54 10 112 10 90 0
111 3 148 23 59 31 114 83 153 143 17 27 33 48 34 47 1 -2 -12 -399 -31 -883
-41 -1090 -40 -1025 -11 -1025 16 0 80 -58 222 -200 l200 -200 227 0 228 0 0
33 c0 38 49 1250 51 1257 1 6 41 -208 100 -542 l42 -238 26 0 c21 0 69 -42
226 -200 l200 -200 235 2 234 3 66 385 65 385 6 -95 c4 -52 10 -161 14 -242
l7 -148 27 0 c21 0 67 -40 226 -200 l200 -200 232 0 233 0 0 58 c-1 31 -40
1109 -89 2395 l-87 2338 -202 202 c-164 165 -202 207 -202 230 l0 27 -299 0
c-276 0 -299 -1 -303 -17 -3 -10 -92 -561 -199 -1225 -107 -665 -196 -1208
-199 -1208 -3 0 -81 447 -175 992 -165 962 -171 994 -198 1025 -24 27 -27 35
-17 54 7 12 14 56 17 98 9 129 -31 245 -112 326 -38 39 -42 45 -28 57 21 17
49 83 58 134 8 55 -17 170 -55 248 -42 84 -116 166 -182 201 l-54 28 20 41
c30 59 27 156 -7 229 -47 104 -151 181 -258 194 -27 3 -49 7 -49 8 0 1 7 20
16 41 12 29 15 60 12 120 -11 203 -167 379 -348 392 l-68 5 -4 48 c-14 145
-186 320 -367 373 -65 19 -152 20 -202 2 l-37 -13 -11 38 c-26 86 -136 170
-266 204 -70 18 -215 19 -265 2 -35 -12 -35 -12 -82 39 -56 61 -140 108 -234
130 -85 20 -258 21 -332 1 -52 -14 -54 -14 -106 14 -115 63 -370 95 -504 64z
m4802 -2787 c4 -57 42 -1077 86 -2268 44 -1191 82 -2218 86 -2282 l6 -118
-216 0 c-119 0 -216 1 -217 3 0 1 -22 486 -48 1077 l-48 1075 18 635 c20 714
22 875 9 845 -5 -11 -55 -337 -111 -725 -76 -529 -146 -960 -280 -1725 -99
-561 -182 -1032 -185 -1048 l-6 -27 -215 2 -216 3 -183 1024 c-100 563 -194
1115 -209 1227 l-27 203 26 33 c73 97 131 287 124 412 l-3 64 38 24 c21 13 49
40 64 61 14 20 28 36 30 34 2 -2 60 -319 129 -703 123 -683 127 -710 175
-1174 27 -261 49 -486 49 -499 0 -77 16 37 64 470 50 442 76 614 295 1973 133
818 244 1492 247 1497 3 5 119 9 259 9 l253 0 6 -102z m-4830 -365 c256 -91
343 -131 464 -219 l23 -17 -24 54 c-14 30 -41 89 -61 132 -19 42 -34 77 -31
77 2 0 83 -47 179 -105 l175 -106 53 41 c28 23 74 53 101 66 61 32 186 64 245
64 l44 0 -57 -65 c-32 -36 -55 -68 -53 -71 3 -2 77 0 164 6 145 10 291 7 354
-7 22 -4 17 -9 -45 -41 l-70 -36 190 -17 c180 -17 409 -48 402 -55 -2 -2 -31
-14 -66 -27 -34 -13 -62 -28 -61 -33 0 -5 24 -17 51 -26 28 -10 98 -40 156
-68 85 -40 103 -53 99 -67 -3 -10 -60 -249 -126 -531 -66 -282 -123 -524 -126
-536 -5 -23 -3 -23 85 -28 79 -5 95 -9 137 -37 26 -17 51 -31 56 -31 22 0 51
-90 61 -192 19 -188 -12 -265 -168 -423 -113 -114 -339 -289 -498 -385 l-38
-22 6 36 c4 20 5 36 2 36 -3 0 -23 -28 -45 -63 -25 -40 -49 -98 -66 -157 -83
-303 -203 -479 -395 -579 -165 -86 -585 -246 -701 -267 -56 -11 -171 -18 -334
-21 -222 -5 -245 -7 -216 -19 17 -8 66 -46 108 -85 278 -260 620 -444 937
-505 72 -13 109 -28 188 -71 l97 -55 0 -42 c0 -201 -263 -587 -758 -1113
l-134 -142 -47 62 c-88 116 -304 278 -721 542 -483 306 -742 496 -896 657
-102 105 -168 210 -180 286 l-6 39 53 7 c74 10 188 56 249 101 131 96 161 217
140 560 -14 220 -47 513 -66 580 -4 13 11 3 45 -30 28 -27 51 -46 51 -42 0 13
-102 152 -145 197 -88 93 -124 180 -171 414 l-27 135 -42 -6 c-159 -21 -420
203 -585 502 -133 240 -133 527 -1 678 67 75 230 128 402 131 l96 1 7 225 c10
335 22 501 37 510 40 25 403 29 524 6 44 -9 83 -16 87 -16 4 0 -12 28 -36 63
-79 113 -80 116 -59 112 10 -3 104 -20 208 -40 248 -47 327 -69 396 -111 31
-18 60 -34 63 -34 4 0 -27 42 -69 93 -42 50 -90 109 -107 130 l-30 38 53 -22
c242 -95 383 -164 467 -231 34 -27 62 -47 62 -44 0 3 -45 73 -99 156 -55 82
-97 150 -94 150 3 0 64 -21 137 -47z m2895 -2045 c0 -112 -19 -664 -42 -1228
l-42 -1025 -207 -3 c-115 -1 -208 1 -208 5 -1 47 72 1957 76 1981 5 31 7 32
52 32 53 0 129 32 180 75 46 38 116 140 141 203 12 29 24 77 27 107 14 114 24
48 23 -147z m-5229 50 c36 -13 67 -18 92 -14 l36 6 -10 -37 c-6 -21 -8 -74 -6
-118 5 -98 40 -176 106 -236 l43 -41 -16 -106 c-9 -59 -18 -115 -21 -124 -5
-17 6 -18 129 -18 l135 0 26 -44 c116 -199 353 -270 555 -167 l38 20 17 -107
c35 -232 66 -558 66 -692 l0 -55 -105 0 c-104 0 -104 0 -110 25 -2 14 -25 161
-50 328 -25 167 -47 308 -50 313 -4 5 -150 9 -345 9 l-340 0 -5 -22 c-3 -13
-43 -268 -90 -568 -47 -300 -88 -556 -91 -570 -4 -19 -21 -32 -77 -58 -71 -32
-73 -32 -225 -32 l-154 0 6 28 c3 15 82 529 176 1142 94 613 173 1128 176
1143 5 22 10 27 22 21 10 -4 42 -16 72 -26z m911 -1623 c17 -114 15 -125 -24
-125 -41 0 -151 -35 -224 -70 -43 -21 -79 -37 -81 -35 -3 3 32 253 44 318 l6
28 131 -3 131 -3 17 -110z m3097 -477 l-3 -203 -63 -3 -62 -3 -148 138 c-81
76 -182 167 -225 202 -42 35 -77 65 -77 67 0 2 131 4 290 4 l290 0 -2 -202z"/>
<path d="M4882 6769 c-129 -22 -322 -105 -322 -138 0 -6 95 -9 233 -8 258 2
312 -6 436 -65 86 -41 282 -174 410 -278 56 -45 105 -80 108 -77 8 9 -50 126
-91 182 -97 134 -268 273 -413 335 -138 58 -230 71 -361 49z"/>
<path d="M7205 6394 c-282 -50 -506 -135 -586 -221 -22 -24 -39 -47 -36 -49 2
-3 76 13 163 35 295 74 421 94 594 94 134 0 167 -3 245 -25 50 -14 98 -28 108
-32 33 -15 17 12 -37 61 -89 82 -249 154 -335 152 -20 0 -72 -7 -116 -15z"/>
<path d="M4565 6268 c18 -60 56 -128 80 -144 15 -10 53 -20 86 -22 l58 -4 -14
-27 c-32 -62 -47 -154 -43 -262 3 -97 6 -111 39 -177 19 -40 34 -72 32 -72 -2
0 -22 9 -44 21 -23 11 -43 19 -45 16 -9 -9 81 -86 129 -110 128 -62 325 -83
487 -52 50 10 93 21 96 26 3 5 -68 9 -158 9 l-163 1 42 20 c123 60 235 225
258 382 4 26 9 47 11 47 13 0 119 -59 183 -103 l73 -49 -18 32 c-34 58 -164
188 -236 237 -153 101 -340 161 -645 207 -95 14 -182 30 -194 36 -19 11 -20
10 -14 -12z m422 -199 c112 -22 258 -65 338 -100 52 -23 51 -18 18 -143 -14
-51 -21 -60 -52 -74 -55 -24 -173 -20 -245 8 -106 41 -190 140 -216 254 -19
84 -10 87 157 55z"/>
<path d="M3875 6231 c-75 -34 -108 -97 -107 -206 0 -121 45 -215 199 -412 79
-102 143 -153 190 -153 48 0 88 24 107 64 20 42 20 76 2 158 -8 35 -17 108
-21 163 -9 145 -23 216 -56 273 -38 67 -87 103 -162 119 -82 17 -105 16 -152
-6z"/>
<path d="M7005 5853 c-121 -17 -331 -109 -395 -173 -78 -78 -110 -255 -63
-345 28 -53 57 -79 123 -109 142 -64 328 -90 451 -62 69 16 200 74 138 62 -78
-16 -234 -27 -299 -21 l-75 7 35 18 c136 70 244 250 259 430 l6 75 45 -3 c58
-4 225 -38 277 -56 36 -13 44 -12 82 5 36 16 166 127 158 135 -1 2 -21 -3 -42
-11 -56 -20 -145 -18 -250 5 -207 46 -337 59 -450 43z m125 -141 c0 -15 -13
-48 -28 -73 -83 -130 -245 -187 -400 -140 -38 11 -80 29 -92 39 l-22 18 20 40
c11 21 28 46 38 56 62 55 192 85 372 87 l112 1 0 -28z"/>
<path d="M7813 5667 c-83 -63 -124 -139 -143 -263 -19 -121 -39 -152 -162
-244 -90 -66 -146 -167 -102 -184 26 -10 86 -7 144 9 181 48 364 217 426 394
40 112 29 233 -27 292 -37 40 -81 39 -136 -4z"/>
<path d="M6114 5274 c-9 -46 8 -206 32 -316 l17 -78 39 0 c21 0 38 1 38 3 0
12 -109 420 -113 424 -3 3 -9 -12 -13 -33z"/>
<path d="M5620 4493 c0 -13 103 -59 170 -77 151 -41 354 -46 438 -11 23 9 42
20 42 24 0 3 -54 4 -121 3 -66 -2 -159 1 -207 8 -82 10 -266 44 -304 56 -10 3
-18 1 -18 -3z"/>
<path d="M1135 7963 c-223 -34 -396 -120 -531 -266 -113 -122 -184 -261 -231
-454 l-26 -108 -4 -569 c-5 -616 -3 -645 47 -776 59 -152 209 -337 382 -471
45 -35 150 -128 232 -207 203 -193 438 -366 696 -510 30 -17 71 -44 90 -61
l35 -29 0 -263 c-1 -217 -4 -276 -18 -333 -41 -163 -121 -272 -240 -331 -75
-36 -183 -59 -254 -53 l-38 3 -2 340 -2 339 -195 196 c-131 132 -196 203 -198
220 l-3 25 -267 3 -268 2 0 -332 c0 -374 9 -467 61 -623 59 -178 172 -341 306
-442 42 -32 159 -136 260 -232 100 -96 204 -190 231 -209 292 -209 761 -230
1085 -48 150 84 262 207 347 381 97 197 126 388 117 781 -5 260 -13 308 -67
420 -46 94 -115 178 -277 334 -83 81 -169 174 -193 210 -96 142 -269 287 -574
476 -99 62 -221 138 -269 168 l-88 56 3 527 c4 505 5 531 26 606 53 191 162
303 330 338 30 6 57 8 60 4 4 -4 8 -191 10 -416 l3 -409 22 0 c16 0 82 -60
222 -200 l200 -200 232 0 233 0 0 376 c0 495 -18 621 -121 828 -57 114 -95
162 -279 351 -91 94 -188 202 -216 240 -70 97 -169 177 -289 235 -144 69 -201
82 -390 85 -88 2 -173 1 -190 -2z m410 -63 c355 -92 584 -396 625 -828 5 -59
10 -259 10 -444 l0 -338 -214 0 -215 0 -3 408 c-5 444 -6 457 -67 588 -70 150
-207 234 -381 234 -174 0 -315 -89 -390 -244 -62 -130 -63 -142 -67 -697 -3
-325 -1 -527 6 -563 18 -96 58 -163 156 -261 104 -105 210 -178 530 -370 127
-76 266 -162 310 -193 257 -178 390 -341 441 -541 13 -54 15 -114 12 -410 -4
-333 -5 -350 -30 -442 -55 -203 -135 -346 -261 -466 -177 -168 -369 -237 -657
-236 -134 0 -169 4 -255 26 -394 103 -657 417 -704 840 -10 90 -16 639 -7 648
2 2 104 3 225 1 l221 -3 0 -292 c0 -305 5 -368 41 -479 43 -136 158 -263 279
-309 258 -99 536 2 645 233 66 139 70 170 70 498 0 346 0 345 -111 461 -82 85
-169 144 -478 328 -391 233 -525 329 -666 478 -129 136 -189 251 -217 411 -22
126 -13 1144 10 1252 93 424 338 667 735 730 94 15 316 4 407 -20z"/>
</g>
</svg>
