<?xml version="1.0" encoding="UTF-8" standalone="no"?>
<!-- Created with Inkscape (http://www.inkscape.org/) -->

<svg
   version="1.1"
   id="svg1"
   width="500"
   height="500"
   viewBox="0 0 500 500"
   sodipodi:docname="FINAL-NOD-LOGO-light.svg"
   inkscape:version="1.4.2 (f4327f4, 2025-05-13)"
   xmlns:inkscape="http://www.inkscape.org/namespaces/inkscape"
   xmlns:sodipodi="http://sodipodi.sourceforge.net/DTD/sodipodi-0.dtd"
   xmlns="http://www.w3.org/2000/svg"
   xmlns:svg="http://www.w3.org/2000/svg">
  <defs
     id="defs1" />
  <sodipodi:namedview
     id="namedview1"
     pagecolor="#ffffff"
     bordercolor="#000000"
     borderopacity="0.25"
     inkscape:showpageshadow="2"
     inkscape:pageopacity="0.0"
     inkscape:pagecheckerboard="0"
     inkscape:deskcolor="#d1d1d1"
     showgrid="false"
     inkscape:zoom="1.546"
     inkscape:cx="250"
     inkscape:cy="250"
     inkscape:window-width="1920"
     inkscape:window-height="991"
     inkscape:window-x="-9"
     inkscape:window-y="-9"
     inkscape:window-maximized="1"
     inkscape:current-layer="g1" />
  <g
     inkscape:groupmode="layer"
     inkscape:label="Image"
     id="g1">
    <path
       style="fill:#000000"
       d="m 238.67464,495.15913 c -29.60249,-3.80486 -49.84103,-14.81245 -69.2245,-37.65071 -13.56052,-15.97747 -15.20248,-18.34966 -21.62685,-31.24508 -7.30057,-14.6542 -9.34204,-20.17454 -13.35621,-36.11651 -2.65979,-10.56312 -2.76814,-11.97305 -2.72826,-35.5 0.0236,-13.921 0.53238,-27.09078 1.17829,-30.5 0.62523,-3.3 2.9907,-15.9 5.2566,-28 5.1499,-27.50061 9.0018,-42.90763 13.55,-54.198 3.80276,-9.43992 11.97499,-25.27991 16.4074,-31.802 1.49513,-2.2 4.4442,-6.7 6.55349,-10 4.93274,-7.71728 13.1342,-16.295 21.98018,-22.98857 3.85542,-2.91732 8.35986,-6.75937 10.00986,-8.53788 8.02435,-8.64936 28.21082,-20.72922 43.54139,-26.05576 5.66798,-1.96932 8.41724,-2.24046 22.45861,-2.21491 13.07264,0.0238 17.55516,0.42618 24.5,2.19931 10.46952,2.67304 22.68072,8.38374 32.78651,15.33296 9.44319,6.49358 28.95022,25.60809 32.634,31.97734 18.10788,31.30845 20.70024,89.50481 8.00865,179.78751 -4.69384,33.39009 -6.92032,41.51053 -16.94696,61.8092 -7.63556,15.458 -18.2884,31.66433 -25.64917,39.02048 -5.71396,5.71037 -17.67694,13.41129 -28.35503,18.25297 -14.31831,6.49223 -39.68297,9.16673 -60.978,6.42965 z m 15.75,-139.17458 c -0.6875,-0.27741 -1.8125,-0.27741 -2.5,0 -0.6875,0.27741 -0.125,0.50439 1.25,0.50439 1.375,0 1.9375,-0.22698 1.25,-0.50439 z m 13.91505,-4.17388 c 4.18157,-1.15951 8.96425,-3.50877 12.97836,-6.37498 6.76166,-4.82805 15.85659,-13.92979 15.85659,-15.86846 0,-0.88525 -0.33633,-0.88616 -1.39954,-0.004 -1.42902,1.18598 2.74204,-10.30188 4.5672,-12.57892 1.40497,-1.75281 -0.0552,-15.95461 -2.39145,-23.25986 -1.32114,-4.13106 -3.25295,-7.62125 -5.41503,-9.78334 -3.19405,-3.19405 -3.85564,-4.51761 -3.39627,-6.79451 0.11097,-0.55 -0.14366,-0.65459 -0.56583,-0.23242 -0.42217,0.42218 -2.14717,-0.56517 -3.83333,-2.19411 -7.29674,-7.04907 -24.91579,-11.40415 -37.05697,-9.15973 -3.21608,0.59453 -6.0563,0.87208 -6.3116,0.61677 -0.2553,-0.2553 1.50839,-0.78372 3.91932,-1.17427 l 4.3835,-0.71009 -3.23142,-0.84685 c -2.66744,-0.69905 -4.23819,-0.31769 -9,2.1851 -10.28355,5.40501 -12.36112,6.78302 -16.86089,11.18341 -5.09118,4.97875 -7.68689,9.81804 -10.45139,19.48501 -2.0484,7.16286 -2.65567,20.23994 -1.01687,21.89718 0.51669,0.5225 2.74806,4.56946 4.95861,8.99325 10.58031,21.17357 31.868,30.83165 54.26701,24.62059 z m -57.87904,-42.66384 c 0.008,-2.75 0.20172,-3.75631 0.43157,-2.23625 0.22986,1.52006 0.22371,3.77006 -0.0136,5 -0.23736,1.22994 -0.42542,-0.0138 -0.41792,-2.76375 z m 0.27828,-10.79313 c 0.37553,-0.98622 0.93469,-1.54122 1.24258,-1.23333 0.30789,0.30789 6.4e-4,1.11479 -0.68278,1.79313 -0.98762,0.98026 -1.10248,0.8654 -0.5598,-0.5598 z m 76.92863,48.30458 c 0.35034,-0.56686 -0.0511,-0.7345 -0.94098,-0.39301 -1.73242,0.66479 -2.04939,1.38156 -0.61096,1.38156 0.51754,0 1.21592,-0.44485 1.55194,-0.98855 z m 8.00708,-7.01145 c 0.99549,-1.1 1.58498,-2 1.30998,-2 -0.275,0 -1.31449,0.9 -2.30998,2 -0.99549,1.1 -1.58498,2 -1.30998,2 0.275,0 1.31449,-0.9 2.30998,-2 z m 2.44934,-6 c 0.96459,-1.375 2.03552,-4.075 2.37984,-6 0.59781,-3.34221 0.56545,-3.39174 -0.71778,-1.09861 -1.00568,1.79714 -1.50096,2.04877 -1.96837,1 -0.34351,-0.77077 -0.38233,-0.41704 -0.0863,0.78606 0.58937,2.39496 -0.71671,5.20642 -4.55677,9.80892 l -2.5,2.99636 2.84777,-2.49636 c 1.56627,-1.37301 3.63698,-3.62137 4.60157,-4.99637 z m -32.35337,-70.57144 c -2.92705,-1.07253 -5.42956,-1.21543 -10,-0.57101 l -6.09597,0.85952 7.79017,0.015 c 4.2846,0.008 8.0721,0.2969 8.41667,0.64147 0.34457,0.34457 1.33899,0.59478 2.20983,0.55603 0.87083,-0.0388 -0.17349,-0.7142 -2.3207,-1.50098 z M 244.80872,91.067534 C 230.69644,87.634462 221.20767,79.38762 214.40918,64.64683 c -3.31512,-7.188001 -3.43571,-7.853599 -2.89874,-16 0.72396,-10.983177 2.71097,-17.34462 7.79627,-24.959919 7.92521,-11.868102 19.32704,-17.9189791 35.36793,-18.7695433 10.18887,-0.5402623 14.15378,0.466744 23.10895,5.8692083 10.48246,6.323848 13.43243,9.87748 18.93954,22.815238 2.29766,5.397852 2.72294,7.75504 2.59678,14.393302 -0.16625,8.748142 -1.35247,14.218499 -4.31468,19.897504 -1.11672,2.14093 -1.61679,4.283149 -1.16717,5 0.43267,0.689816 0.67453,2.15421 0.53749,3.25421 -0.1965,1.577184 0.39014,1.268058 2.77495,-1.462226 1.66328,-1.904224 3.02414,-3.122446 3.02414,-2.707159 0,1.608784 -9.22674,10.519605 -10.41888,10.06214 -0.69338,-0.266075 -1.83789,0.211706 -2.54335,1.061736 -0.70546,0.85003 -0.90243,1.545509 -0.43771,1.545509 1.27584,0 -3.0334,2.83406 -6.05743,3.983791 -1.74726,0.66431 -2.44597,0.668824 -2.04076,0.01319 0.89391,-1.446383 -1.1271,-1.223767 -2.68044,0.295253 -0.72679,0.710727 -2.67143,1.777354 -4.32143,2.370282 -4.34429,1.561124 -20.03518,1.419898 -26.86592,-0.241808 z M 292.67464,79.64683 c 0.99549,-1.1 1.58498,-2 1.30998,-2 -0.275,0 -1.31449,0.9 -2.30998,2 -0.99549,1.1 -1.58498,2 -1.30998,2 0.275,0 1.31449,-0.9 2.30998,-2 z m -0.5,-5 c 0,-0.55 -0.19844,-1 -0.44098,-1 -0.24254,0 -0.7191,0.45 -1.05902,1 -0.33992,0.55 -0.14148,1 0.44098,1 0.58246,0 1.05902,-0.45 1.05902,-1 z m 8,1 c 0.5887,-1.1 1.29537,-2 1.57037,-2 0.275,0 0.0183,0.9 -0.57037,2 -0.5887,1.1 -1.29537,2 -1.57037,2 -0.275,0 -0.0183,-0.9 0.57037,-2 z m -4.06533,-6.224958 c 2.77922,-4.798727 4.8707,-12.800277 4.31938,-16.525042 -0.29734,-2.008858 -0.0558,-3.25 0.63245,-3.25 3.3331,0 -1.17511,20.013723 -4.9651,22.042067 -1.83865,0.984017 -1.83834,0.93004 0.0133,-2.267025 z m 7.22322,-12.775042 c 0,-1.375 0.22698,-1.9375 0.50439,-1.25 0.27741,0.6875 0.27741,1.8125 0,2.5 -0.27741,0.6875 -0.50439,0.125 -0.50439,-1.25 z m -3.63247,-19.923455 c -0.92309,-2.779161 -2.09393,-5.309871 -2.60188,-5.6238 -0.50795,-0.313928 -0.92354,-1.09065 -0.92354,-1.726048 0,-0.723559 0.51277,-0.608084 1.3722,0.309017 1.46542,1.563754 4.88821,11.037208 4.22677,11.698651 -0.21736,0.21736 -1.15046,-1.878659 -2.07355,-4.65782 z"
       id="path1" />
  </g>
</svg>
